<svg width="15" height="15" viewBox="0 0 15 15" fill="none" xmlns="http://www.w3.org/2000/svg">
<g clip-path="url(#clip0_8_171)">
<path d="M7.5 13.5C5.01562 13.5 3 11.4844 3 9C3 6.8625 6.05156 2.85234 6.90469 1.77422C7.04531 1.59844 7.25391 1.5 7.47891 1.5H7.52109C7.74609 1.5 7.95469 1.59844 8.09531 1.77422C8.94844 2.85234 12 6.8625 12 9C12 11.4844 9.98438 13.5 7.5 13.5ZM5.25 9.375C5.25 9.16875 5.08125 9 4.875 9C4.66875 9 4.5 9.16875 4.5 9.375C4.5 10.8258 5.67422 12 7.125 12C7.33125 12 7.5 11.8313 7.5 11.625C7.5 11.4187 7.33125 11.25 7.125 11.25C6.08906 11.25 5.25 10.4109 5.25 9.375Z" fill="#033E5D"/>
</g>
<defs>
<clipPath id="clip0_8_171">
<rect width="9" height="12" fill="white" transform="translate(3 1.5)"/>
</clipPath>
</defs>
</svg>
