<svg width="15" height="15" viewBox="0 0 15 15" fill="none" xmlns="http://www.w3.org/2000/svg">
<g clip-path="url(#clip0_8_296)">
<path d="M12.375 7.5C12.375 8.79293 11.8614 10.0329 10.9471 10.9471C10.0329 11.8614 8.79293 12.375 7.5 12.375C6.20707 12.375 4.96709 11.8614 4.05285 10.9471C3.13861 10.0329 2.625 8.79293 2.625 7.5C2.625 6.20707 3.13861 4.96709 4.05285 4.05285C4.96709 3.13861 6.20707 2.625 7.5 2.625C8.79293 2.625 10.0329 3.13861 10.9471 4.05285C11.8614 4.96709 12.375 6.20707 12.375 7.5ZM1.5 7.5C1.5 9.0913 2.13214 10.6174 3.25736 11.7426C4.38258 12.8679 5.9087 13.5 7.5 13.5C9.0913 13.5 10.6174 12.8679 11.7426 11.7426C12.8679 10.6174 13.5 9.0913 13.5 7.5C13.5 5.9087 12.8679 4.38258 11.7426 3.25736C10.6174 2.13214 9.0913 1.5 7.5 1.5C5.9087 1.5 4.38258 2.13214 3.25736 3.25736C2.13214 4.38258 1.5 5.9087 1.5 7.5ZM6.9375 4.3125V7.5C6.9375 7.6875 7.03125 7.86328 7.18828 7.96875L9.43828 9.46875C9.69609 9.64219 10.0453 9.57187 10.2188 9.31172C10.3922 9.05156 10.3219 8.70469 10.0617 8.53125L8.0625 7.2V4.3125C8.0625 4.00078 7.81172 3.75 7.5 3.75C7.18828 3.75 6.9375 4.00078 6.9375 4.3125Z" fill="#033E5D"/>
</g>
<defs>
<clipPath id="clip0_8_296">
<rect width="12" height="12" fill="white" transform="translate(1.5 1.5)"/>
</clipPath>
</defs>
</svg>
