<svg width="15" height="15" viewBox="0 0 15 15" fill="none" xmlns="http://www.w3.org/2000/svg">
<g clip-path="url(#clip0_8_172)">
<path d="M8.25 2.25C8.25 2.66484 8.58516 3 9 3H9.75C10.1648 3 10.5 3.33516 10.5 3.75C10.5 4.16484 10.1648 4.5 9.75 4.5H2.25C1.83516 4.5 1.5 4.83516 1.5 5.25C1.5 5.66484 1.83516 6 2.25 6H9.75C10.9922 6 12 4.99219 12 3.75C12 2.50781 10.9922 1.5 9.75 1.5H9C8.58516 1.5 8.25 1.83516 8.25 2.25ZM9.75 10.5C9.75 10.9148 10.0852 11.25 10.5 11.25H11.25C12.4922 11.25 13.5 10.2422 13.5 9C13.5 7.75781 12.4922 6.75 11.25 6.75H2.25C1.83516 6.75 1.5 7.08516 1.5 7.5C1.5 7.91484 1.83516 8.25 2.25 8.25H11.25C11.6648 8.25 12 8.58516 12 9C12 9.41484 11.6648 9.75 11.25 9.75H10.5C10.0852 9.75 9.75 10.0852 9.75 10.5ZM4.5 13.5H5.25C6.49219 13.5 7.5 12.4922 7.5 11.25C7.5 10.0078 6.49219 9 5.25 9H2.25C1.83516 9 1.5 9.33516 1.5 9.75C1.5 10.1648 1.83516 10.5 2.25 10.5H5.25C5.66484 10.5 6 10.8352 6 11.25C6 11.6648 5.66484 12 5.25 12H4.5C4.08516 12 3.75 12.3352 3.75 12.75C3.75 13.1648 4.08516 13.5 4.5 13.5Z" fill="#033E5D"/>
</g>
<defs>
<clipPath id="clip0_8_172">
<rect width="12" height="12" fill="white" transform="translate(1.5 1.5)"/>
</clipPath>
</defs>
</svg>
